%TF.GenerationSoftware,KiCad,Pcbnew,8.0.1*%
%TF.CreationDate,2025-10-14T16:00:41-07:00*%
%TF.ProjectId,BusinessCardPCB,42757369-6e65-4737-9343-617264504342,rev?*%
%TF.SameCoordinates,Original*%
%TF.FileFunction,Legend,Top*%
%TF.FilePolarity,Positive*%
%FSLAX46Y46*%
G04 Gerber Fmt 4.6, Leading zero omitted, Abs format (unit mm)*
G04 Created by KiCad (PCBNEW 8.0.1) date 2025-10-14 16:00:41*
%MOMM*%
%LPD*%
G01*
G04 APERTURE LIST*
%ADD10C,0.150000*%
%ADD11C,0.100000*%
%ADD12C,0.120000*%
G04 APERTURE END LIST*
D10*
X76743333Y-52984819D02*
X76410000Y-52508628D01*
X76171905Y-52984819D02*
X76171905Y-51984819D01*
X76171905Y-51984819D02*
X76552857Y-51984819D01*
X76552857Y-51984819D02*
X76648095Y-52032438D01*
X76648095Y-52032438D02*
X76695714Y-52080057D01*
X76695714Y-52080057D02*
X76743333Y-52175295D01*
X76743333Y-52175295D02*
X76743333Y-52318152D01*
X76743333Y-52318152D02*
X76695714Y-52413390D01*
X76695714Y-52413390D02*
X76648095Y-52461009D01*
X76648095Y-52461009D02*
X76552857Y-52508628D01*
X76552857Y-52508628D02*
X76171905Y-52508628D01*
X77695714Y-52984819D02*
X77124286Y-52984819D01*
X77410000Y-52984819D02*
X77410000Y-51984819D01*
X77410000Y-51984819D02*
X77314762Y-52127676D01*
X77314762Y-52127676D02*
X77219524Y-52222914D01*
X77219524Y-52222914D02*
X77124286Y-52270533D01*
X82521905Y-71714819D02*
X82521905Y-70714819D01*
X82521905Y-70714819D02*
X82760000Y-70714819D01*
X82760000Y-70714819D02*
X82902857Y-70762438D01*
X82902857Y-70762438D02*
X82998095Y-70857676D01*
X82998095Y-70857676D02*
X83045714Y-70952914D01*
X83045714Y-70952914D02*
X83093333Y-71143390D01*
X83093333Y-71143390D02*
X83093333Y-71286247D01*
X83093333Y-71286247D02*
X83045714Y-71476723D01*
X83045714Y-71476723D02*
X82998095Y-71571961D01*
X82998095Y-71571961D02*
X82902857Y-71667200D01*
X82902857Y-71667200D02*
X82760000Y-71714819D01*
X82760000Y-71714819D02*
X82521905Y-71714819D01*
X84045714Y-71714819D02*
X83474286Y-71714819D01*
X83760000Y-71714819D02*
X83760000Y-70714819D01*
X83760000Y-70714819D02*
X83664762Y-70857676D01*
X83664762Y-70857676D02*
X83569524Y-70952914D01*
X83569524Y-70952914D02*
X83474286Y-71000533D01*
D11*
X63424285Y-53581609D02*
X63567142Y-53629228D01*
X63567142Y-53629228D02*
X63614761Y-53676847D01*
X63614761Y-53676847D02*
X63662380Y-53772085D01*
X63662380Y-53772085D02*
X63662380Y-53914942D01*
X63662380Y-53914942D02*
X63614761Y-54010180D01*
X63614761Y-54010180D02*
X63567142Y-54057800D01*
X63567142Y-54057800D02*
X63471904Y-54105419D01*
X63471904Y-54105419D02*
X63090952Y-54105419D01*
X63090952Y-54105419D02*
X63090952Y-53105419D01*
X63090952Y-53105419D02*
X63424285Y-53105419D01*
X63424285Y-53105419D02*
X63519523Y-53153038D01*
X63519523Y-53153038D02*
X63567142Y-53200657D01*
X63567142Y-53200657D02*
X63614761Y-53295895D01*
X63614761Y-53295895D02*
X63614761Y-53391133D01*
X63614761Y-53391133D02*
X63567142Y-53486371D01*
X63567142Y-53486371D02*
X63519523Y-53533990D01*
X63519523Y-53533990D02*
X63424285Y-53581609D01*
X63424285Y-53581609D02*
X63090952Y-53581609D01*
X63948095Y-53105419D02*
X64519523Y-53105419D01*
X64233809Y-54105419D02*
X64233809Y-53105419D01*
X65376666Y-54105419D02*
X64805238Y-54105419D01*
X65090952Y-54105419D02*
X65090952Y-53105419D01*
X65090952Y-53105419D02*
X64995714Y-53248276D01*
X64995714Y-53248276D02*
X64900476Y-53343514D01*
X64900476Y-53343514D02*
X64805238Y-53391133D01*
D10*
X81216667Y-59657200D02*
X81359524Y-59704819D01*
X81359524Y-59704819D02*
X81597619Y-59704819D01*
X81597619Y-59704819D02*
X81692857Y-59657200D01*
X81692857Y-59657200D02*
X81740476Y-59609580D01*
X81740476Y-59609580D02*
X81788095Y-59514342D01*
X81788095Y-59514342D02*
X81788095Y-59419104D01*
X81788095Y-59419104D02*
X81740476Y-59323866D01*
X81740476Y-59323866D02*
X81692857Y-59276247D01*
X81692857Y-59276247D02*
X81597619Y-59228628D01*
X81597619Y-59228628D02*
X81407143Y-59181009D01*
X81407143Y-59181009D02*
X81311905Y-59133390D01*
X81311905Y-59133390D02*
X81264286Y-59085771D01*
X81264286Y-59085771D02*
X81216667Y-58990533D01*
X81216667Y-58990533D02*
X81216667Y-58895295D01*
X81216667Y-58895295D02*
X81264286Y-58800057D01*
X81264286Y-58800057D02*
X81311905Y-58752438D01*
X81311905Y-58752438D02*
X81407143Y-58704819D01*
X81407143Y-58704819D02*
X81645238Y-58704819D01*
X81645238Y-58704819D02*
X81788095Y-58752438D01*
X82121429Y-58704819D02*
X82359524Y-59704819D01*
X82359524Y-59704819D02*
X82550000Y-58990533D01*
X82550000Y-58990533D02*
X82740476Y-59704819D01*
X82740476Y-59704819D02*
X82978572Y-58704819D01*
X83883333Y-59704819D02*
X83311905Y-59704819D01*
X83597619Y-59704819D02*
X83597619Y-58704819D01*
X83597619Y-58704819D02*
X83502381Y-58847676D01*
X83502381Y-58847676D02*
X83407143Y-58942914D01*
X83407143Y-58942914D02*
X83311905Y-58990533D01*
D12*
%TO.C,R1*%
X72870000Y-54900000D02*
X73640000Y-54900000D01*
X73640000Y-53530000D02*
X73640000Y-56270000D01*
X73640000Y-56270000D02*
X80180000Y-56270000D01*
X80180000Y-53530000D02*
X73640000Y-53530000D01*
X80180000Y-56270000D02*
X80180000Y-53530000D01*
X80950000Y-54900000D02*
X80180000Y-54900000D01*
%TO.C,D1*%
X80700000Y-73675000D02*
X80700000Y-76765000D01*
X80700001Y-73675170D02*
G75*
G02*
X86249999Y-75220462I2559999J-1544830D01*
G01*
X86250000Y-75219538D02*
G75*
G02*
X80700000Y-76764830I-2990000J-462D01*
G01*
X85760000Y-75220000D02*
G75*
G02*
X80760000Y-75220000I-2500000J0D01*
G01*
X80760000Y-75220000D02*
G75*
G02*
X85760000Y-75220000I2500000J0D01*
G01*
D11*
%TO.C,BT1*%
X75210000Y-69650000D02*
G75*
G02*
X53210000Y-69650000I-11000000J0D01*
G01*
X53210000Y-69650000D02*
G75*
G02*
X75210000Y-69650000I11000000J0D01*
G01*
D12*
%TO.C,SW1*%
X79050000Y-62750000D02*
X79050000Y-64250000D01*
X80300000Y-66750000D02*
X84800000Y-66750000D01*
X84800000Y-60250000D02*
X80300000Y-60250000D01*
X86050000Y-64250000D02*
X86050000Y-62750000D01*
%TD*%
M02*
