%TF.GenerationSoftware,KiCad,Pcbnew,8.0.1*%
%TF.CreationDate,2025-10-14T16:00:41-07:00*%
%TF.ProjectId,BusinessCardPCB,42757369-6e65-4737-9343-617264504342,rev?*%
%TF.SameCoordinates,Original*%
%TF.FileFunction,Copper,L1,Top*%
%TF.FilePolarity,Positive*%
%FSLAX46Y46*%
G04 Gerber Fmt 4.6, Leading zero omitted, Abs format (unit mm)*
G04 Created by KiCad (PCBNEW 8.0.1) date 2025-10-14 16:00:41*
%MOMM*%
%LPD*%
G01*
G04 APERTURE LIST*
%ADD10C,0.300000*%
%TA.AperFunction,NonConductor*%
%ADD11C,0.300000*%
%TD*%
%TA.AperFunction,ComponentPad*%
%ADD12C,1.600000*%
%TD*%
%TA.AperFunction,ComponentPad*%
%ADD13O,1.600000X1.600000*%
%TD*%
%TA.AperFunction,ComponentPad*%
%ADD14R,1.800000X1.800000*%
%TD*%
%TA.AperFunction,ComponentPad*%
%ADD15C,1.800000*%
%TD*%
%TA.AperFunction,ComponentPad*%
%ADD16C,2.000000*%
%TD*%
%TA.AperFunction,Conductor*%
%ADD17C,0.200000*%
%TD*%
G04 APERTURE END LIST*
D10*
D11*
X99614510Y-94030996D02*
X99614510Y-92530996D01*
X99614510Y-92530996D02*
X100114510Y-93602425D01*
X100114510Y-93602425D02*
X100614510Y-92530996D01*
X100614510Y-92530996D02*
X100614510Y-94030996D01*
X101971654Y-94030996D02*
X101971654Y-93245282D01*
X101971654Y-93245282D02*
X101900225Y-93102425D01*
X101900225Y-93102425D02*
X101757368Y-93030996D01*
X101757368Y-93030996D02*
X101471654Y-93030996D01*
X101471654Y-93030996D02*
X101328796Y-93102425D01*
X101971654Y-93959568D02*
X101828796Y-94030996D01*
X101828796Y-94030996D02*
X101471654Y-94030996D01*
X101471654Y-94030996D02*
X101328796Y-93959568D01*
X101328796Y-93959568D02*
X101257368Y-93816710D01*
X101257368Y-93816710D02*
X101257368Y-93673853D01*
X101257368Y-93673853D02*
X101328796Y-93530996D01*
X101328796Y-93530996D02*
X101471654Y-93459568D01*
X101471654Y-93459568D02*
X101828796Y-93459568D01*
X101828796Y-93459568D02*
X101971654Y-93388139D01*
X102685939Y-94030996D02*
X102685939Y-93030996D01*
X102685939Y-93316710D02*
X102757368Y-93173853D01*
X102757368Y-93173853D02*
X102828797Y-93102425D01*
X102828797Y-93102425D02*
X102971654Y-93030996D01*
X102971654Y-93030996D02*
X103114511Y-93030996D01*
X104257368Y-93959568D02*
X104114510Y-94030996D01*
X104114510Y-94030996D02*
X103828796Y-94030996D01*
X103828796Y-94030996D02*
X103685939Y-93959568D01*
X103685939Y-93959568D02*
X103614510Y-93888139D01*
X103614510Y-93888139D02*
X103543082Y-93745282D01*
X103543082Y-93745282D02*
X103543082Y-93316710D01*
X103543082Y-93316710D02*
X103614510Y-93173853D01*
X103614510Y-93173853D02*
X103685939Y-93102425D01*
X103685939Y-93102425D02*
X103828796Y-93030996D01*
X103828796Y-93030996D02*
X104114510Y-93030996D01*
X104114510Y-93030996D02*
X104257368Y-93102425D01*
X105543082Y-93030996D02*
X105543082Y-94030996D01*
X104900224Y-93030996D02*
X104900224Y-93816710D01*
X104900224Y-93816710D02*
X104971653Y-93959568D01*
X104971653Y-93959568D02*
X105114510Y-94030996D01*
X105114510Y-94030996D02*
X105328796Y-94030996D01*
X105328796Y-94030996D02*
X105471653Y-93959568D01*
X105471653Y-93959568D02*
X105543082Y-93888139D01*
X106185939Y-93959568D02*
X106328796Y-94030996D01*
X106328796Y-94030996D02*
X106614510Y-94030996D01*
X106614510Y-94030996D02*
X106757367Y-93959568D01*
X106757367Y-93959568D02*
X106828796Y-93816710D01*
X106828796Y-93816710D02*
X106828796Y-93745282D01*
X106828796Y-93745282D02*
X106757367Y-93602425D01*
X106757367Y-93602425D02*
X106614510Y-93530996D01*
X106614510Y-93530996D02*
X106400225Y-93530996D01*
X106400225Y-93530996D02*
X106257367Y-93459568D01*
X106257367Y-93459568D02*
X106185939Y-93316710D01*
X106185939Y-93316710D02*
X106185939Y-93245282D01*
X106185939Y-93245282D02*
X106257367Y-93102425D01*
X106257367Y-93102425D02*
X106400225Y-93030996D01*
X106400225Y-93030996D02*
X106614510Y-93030996D01*
X106614510Y-93030996D02*
X106757367Y-93102425D01*
X109114510Y-93245282D02*
X108614510Y-93245282D01*
X108614510Y-94030996D02*
X108614510Y-92530996D01*
X108614510Y-92530996D02*
X109328796Y-92530996D01*
X109900224Y-94030996D02*
X109900224Y-93030996D01*
X109900224Y-93316710D02*
X109971653Y-93173853D01*
X109971653Y-93173853D02*
X110043082Y-93102425D01*
X110043082Y-93102425D02*
X110185939Y-93030996D01*
X110185939Y-93030996D02*
X110328796Y-93030996D01*
X111471653Y-94030996D02*
X111471653Y-93245282D01*
X111471653Y-93245282D02*
X111400224Y-93102425D01*
X111400224Y-93102425D02*
X111257367Y-93030996D01*
X111257367Y-93030996D02*
X110971653Y-93030996D01*
X110971653Y-93030996D02*
X110828795Y-93102425D01*
X111471653Y-93959568D02*
X111328795Y-94030996D01*
X111328795Y-94030996D02*
X110971653Y-94030996D01*
X110971653Y-94030996D02*
X110828795Y-93959568D01*
X110828795Y-93959568D02*
X110757367Y-93816710D01*
X110757367Y-93816710D02*
X110757367Y-93673853D01*
X110757367Y-93673853D02*
X110828795Y-93530996D01*
X110828795Y-93530996D02*
X110971653Y-93459568D01*
X110971653Y-93459568D02*
X111328795Y-93459568D01*
X111328795Y-93459568D02*
X111471653Y-93388139D01*
X112043081Y-93030996D02*
X112828796Y-93030996D01*
X112828796Y-93030996D02*
X112043081Y-94030996D01*
X112043081Y-94030996D02*
X112828796Y-94030996D01*
X113400224Y-94030996D02*
X113400224Y-93030996D01*
X113400224Y-92530996D02*
X113328796Y-92602425D01*
X113328796Y-92602425D02*
X113400224Y-92673853D01*
X113400224Y-92673853D02*
X113471653Y-92602425D01*
X113471653Y-92602425D02*
X113400224Y-92530996D01*
X113400224Y-92530996D02*
X113400224Y-92673853D01*
X114685939Y-93959568D02*
X114543082Y-94030996D01*
X114543082Y-94030996D02*
X114257368Y-94030996D01*
X114257368Y-94030996D02*
X114114510Y-93959568D01*
X114114510Y-93959568D02*
X114043082Y-93816710D01*
X114043082Y-93816710D02*
X114043082Y-93245282D01*
X114043082Y-93245282D02*
X114114510Y-93102425D01*
X114114510Y-93102425D02*
X114257368Y-93030996D01*
X114257368Y-93030996D02*
X114543082Y-93030996D01*
X114543082Y-93030996D02*
X114685939Y-93102425D01*
X114685939Y-93102425D02*
X114757368Y-93245282D01*
X114757368Y-93245282D02*
X114757368Y-93388139D01*
X114757368Y-93388139D02*
X114043082Y-93530996D01*
X115400224Y-94030996D02*
X115400224Y-93030996D01*
X115400224Y-93316710D02*
X115471653Y-93173853D01*
X115471653Y-93173853D02*
X115543082Y-93102425D01*
X115543082Y-93102425D02*
X115685939Y-93030996D01*
X115685939Y-93030996D02*
X115828796Y-93030996D01*
X100471653Y-96445912D02*
X99971653Y-95731626D01*
X99614510Y-96445912D02*
X99614510Y-94945912D01*
X99614510Y-94945912D02*
X100185939Y-94945912D01*
X100185939Y-94945912D02*
X100328796Y-95017341D01*
X100328796Y-95017341D02*
X100400225Y-95088769D01*
X100400225Y-95088769D02*
X100471653Y-95231626D01*
X100471653Y-95231626D02*
X100471653Y-95445912D01*
X100471653Y-95445912D02*
X100400225Y-95588769D01*
X100400225Y-95588769D02*
X100328796Y-95660198D01*
X100328796Y-95660198D02*
X100185939Y-95731626D01*
X100185939Y-95731626D02*
X99614510Y-95731626D01*
X101328796Y-96445912D02*
X101185939Y-96374484D01*
X101185939Y-96374484D02*
X101114510Y-96303055D01*
X101114510Y-96303055D02*
X101043082Y-96160198D01*
X101043082Y-96160198D02*
X101043082Y-95731626D01*
X101043082Y-95731626D02*
X101114510Y-95588769D01*
X101114510Y-95588769D02*
X101185939Y-95517341D01*
X101185939Y-95517341D02*
X101328796Y-95445912D01*
X101328796Y-95445912D02*
X101543082Y-95445912D01*
X101543082Y-95445912D02*
X101685939Y-95517341D01*
X101685939Y-95517341D02*
X101757368Y-95588769D01*
X101757368Y-95588769D02*
X101828796Y-95731626D01*
X101828796Y-95731626D02*
X101828796Y-96160198D01*
X101828796Y-96160198D02*
X101757368Y-96303055D01*
X101757368Y-96303055D02*
X101685939Y-96374484D01*
X101685939Y-96374484D02*
X101543082Y-96445912D01*
X101543082Y-96445912D02*
X101328796Y-96445912D01*
X102471653Y-96445912D02*
X102471653Y-94945912D01*
X102471653Y-95517341D02*
X102614511Y-95445912D01*
X102614511Y-95445912D02*
X102900225Y-95445912D01*
X102900225Y-95445912D02*
X103043082Y-95517341D01*
X103043082Y-95517341D02*
X103114511Y-95588769D01*
X103114511Y-95588769D02*
X103185939Y-95731626D01*
X103185939Y-95731626D02*
X103185939Y-96160198D01*
X103185939Y-96160198D02*
X103114511Y-96303055D01*
X103114511Y-96303055D02*
X103043082Y-96374484D01*
X103043082Y-96374484D02*
X102900225Y-96445912D01*
X102900225Y-96445912D02*
X102614511Y-96445912D01*
X102614511Y-96445912D02*
X102471653Y-96374484D01*
X104043082Y-96445912D02*
X103900225Y-96374484D01*
X103900225Y-96374484D02*
X103828796Y-96303055D01*
X103828796Y-96303055D02*
X103757368Y-96160198D01*
X103757368Y-96160198D02*
X103757368Y-95731626D01*
X103757368Y-95731626D02*
X103828796Y-95588769D01*
X103828796Y-95588769D02*
X103900225Y-95517341D01*
X103900225Y-95517341D02*
X104043082Y-95445912D01*
X104043082Y-95445912D02*
X104257368Y-95445912D01*
X104257368Y-95445912D02*
X104400225Y-95517341D01*
X104400225Y-95517341D02*
X104471654Y-95588769D01*
X104471654Y-95588769D02*
X104543082Y-95731626D01*
X104543082Y-95731626D02*
X104543082Y-96160198D01*
X104543082Y-96160198D02*
X104471654Y-96303055D01*
X104471654Y-96303055D02*
X104400225Y-96374484D01*
X104400225Y-96374484D02*
X104257368Y-96445912D01*
X104257368Y-96445912D02*
X104043082Y-96445912D01*
X104971654Y-95445912D02*
X105543082Y-95445912D01*
X105185939Y-94945912D02*
X105185939Y-96231626D01*
X105185939Y-96231626D02*
X105257368Y-96374484D01*
X105257368Y-96374484D02*
X105400225Y-96445912D01*
X105400225Y-96445912D02*
X105543082Y-96445912D01*
X106043082Y-96445912D02*
X106043082Y-95445912D01*
X106043082Y-94945912D02*
X105971654Y-95017341D01*
X105971654Y-95017341D02*
X106043082Y-95088769D01*
X106043082Y-95088769D02*
X106114511Y-95017341D01*
X106114511Y-95017341D02*
X106043082Y-94945912D01*
X106043082Y-94945912D02*
X106043082Y-95088769D01*
X107400226Y-96374484D02*
X107257368Y-96445912D01*
X107257368Y-96445912D02*
X106971654Y-96445912D01*
X106971654Y-96445912D02*
X106828797Y-96374484D01*
X106828797Y-96374484D02*
X106757368Y-96303055D01*
X106757368Y-96303055D02*
X106685940Y-96160198D01*
X106685940Y-96160198D02*
X106685940Y-95731626D01*
X106685940Y-95731626D02*
X106757368Y-95588769D01*
X106757368Y-95588769D02*
X106828797Y-95517341D01*
X106828797Y-95517341D02*
X106971654Y-95445912D01*
X106971654Y-95445912D02*
X107257368Y-95445912D01*
X107257368Y-95445912D02*
X107400226Y-95517341D01*
X107971654Y-96374484D02*
X108114511Y-96445912D01*
X108114511Y-96445912D02*
X108400225Y-96445912D01*
X108400225Y-96445912D02*
X108543082Y-96374484D01*
X108543082Y-96374484D02*
X108614511Y-96231626D01*
X108614511Y-96231626D02*
X108614511Y-96160198D01*
X108614511Y-96160198D02*
X108543082Y-96017341D01*
X108543082Y-96017341D02*
X108400225Y-95945912D01*
X108400225Y-95945912D02*
X108185940Y-95945912D01*
X108185940Y-95945912D02*
X108043082Y-95874484D01*
X108043082Y-95874484D02*
X107971654Y-95731626D01*
X107971654Y-95731626D02*
X107971654Y-95660198D01*
X107971654Y-95660198D02*
X108043082Y-95517341D01*
X108043082Y-95517341D02*
X108185940Y-95445912D01*
X108185940Y-95445912D02*
X108400225Y-95445912D01*
X108400225Y-95445912D02*
X108543082Y-95517341D01*
X110400225Y-95660198D02*
X110900225Y-95660198D01*
X111114511Y-96445912D02*
X110400225Y-96445912D01*
X110400225Y-96445912D02*
X110400225Y-94945912D01*
X110400225Y-94945912D02*
X111114511Y-94945912D01*
X111757368Y-95445912D02*
X111757368Y-96445912D01*
X111757368Y-95588769D02*
X111828797Y-95517341D01*
X111828797Y-95517341D02*
X111971654Y-95445912D01*
X111971654Y-95445912D02*
X112185940Y-95445912D01*
X112185940Y-95445912D02*
X112328797Y-95517341D01*
X112328797Y-95517341D02*
X112400226Y-95660198D01*
X112400226Y-95660198D02*
X112400226Y-96445912D01*
X113757369Y-95445912D02*
X113757369Y-96660198D01*
X113757369Y-96660198D02*
X113685940Y-96803055D01*
X113685940Y-96803055D02*
X113614511Y-96874484D01*
X113614511Y-96874484D02*
X113471654Y-96945912D01*
X113471654Y-96945912D02*
X113257369Y-96945912D01*
X113257369Y-96945912D02*
X113114511Y-96874484D01*
X113757369Y-96374484D02*
X113614511Y-96445912D01*
X113614511Y-96445912D02*
X113328797Y-96445912D01*
X113328797Y-96445912D02*
X113185940Y-96374484D01*
X113185940Y-96374484D02*
X113114511Y-96303055D01*
X113114511Y-96303055D02*
X113043083Y-96160198D01*
X113043083Y-96160198D02*
X113043083Y-95731626D01*
X113043083Y-95731626D02*
X113114511Y-95588769D01*
X113114511Y-95588769D02*
X113185940Y-95517341D01*
X113185940Y-95517341D02*
X113328797Y-95445912D01*
X113328797Y-95445912D02*
X113614511Y-95445912D01*
X113614511Y-95445912D02*
X113757369Y-95517341D01*
X114471654Y-96445912D02*
X114471654Y-95445912D01*
X114471654Y-94945912D02*
X114400226Y-95017341D01*
X114400226Y-95017341D02*
X114471654Y-95088769D01*
X114471654Y-95088769D02*
X114543083Y-95017341D01*
X114543083Y-95017341D02*
X114471654Y-94945912D01*
X114471654Y-94945912D02*
X114471654Y-95088769D01*
X115185940Y-95445912D02*
X115185940Y-96445912D01*
X115185940Y-95588769D02*
X115257369Y-95517341D01*
X115257369Y-95517341D02*
X115400226Y-95445912D01*
X115400226Y-95445912D02*
X115614512Y-95445912D01*
X115614512Y-95445912D02*
X115757369Y-95517341D01*
X115757369Y-95517341D02*
X115828798Y-95660198D01*
X115828798Y-95660198D02*
X115828798Y-96445912D01*
X117114512Y-96374484D02*
X116971655Y-96445912D01*
X116971655Y-96445912D02*
X116685941Y-96445912D01*
X116685941Y-96445912D02*
X116543083Y-96374484D01*
X116543083Y-96374484D02*
X116471655Y-96231626D01*
X116471655Y-96231626D02*
X116471655Y-95660198D01*
X116471655Y-95660198D02*
X116543083Y-95517341D01*
X116543083Y-95517341D02*
X116685941Y-95445912D01*
X116685941Y-95445912D02*
X116971655Y-95445912D01*
X116971655Y-95445912D02*
X117114512Y-95517341D01*
X117114512Y-95517341D02*
X117185941Y-95660198D01*
X117185941Y-95660198D02*
X117185941Y-95803055D01*
X117185941Y-95803055D02*
X116471655Y-95945912D01*
X118400226Y-96374484D02*
X118257369Y-96445912D01*
X118257369Y-96445912D02*
X117971655Y-96445912D01*
X117971655Y-96445912D02*
X117828797Y-96374484D01*
X117828797Y-96374484D02*
X117757369Y-96231626D01*
X117757369Y-96231626D02*
X117757369Y-95660198D01*
X117757369Y-95660198D02*
X117828797Y-95517341D01*
X117828797Y-95517341D02*
X117971655Y-95445912D01*
X117971655Y-95445912D02*
X118257369Y-95445912D01*
X118257369Y-95445912D02*
X118400226Y-95517341D01*
X118400226Y-95517341D02*
X118471655Y-95660198D01*
X118471655Y-95660198D02*
X118471655Y-95803055D01*
X118471655Y-95803055D02*
X117757369Y-95945912D01*
X119114511Y-96445912D02*
X119114511Y-95445912D01*
X119114511Y-95731626D02*
X119185940Y-95588769D01*
X119185940Y-95588769D02*
X119257369Y-95517341D01*
X119257369Y-95517341D02*
X119400226Y-95445912D01*
X119400226Y-95445912D02*
X119543083Y-95445912D01*
X120043082Y-96445912D02*
X120043082Y-95445912D01*
X120043082Y-94945912D02*
X119971654Y-95017341D01*
X119971654Y-95017341D02*
X120043082Y-95088769D01*
X120043082Y-95088769D02*
X120114511Y-95017341D01*
X120114511Y-95017341D02*
X120043082Y-94945912D01*
X120043082Y-94945912D02*
X120043082Y-95088769D01*
X120757368Y-95445912D02*
X120757368Y-96445912D01*
X120757368Y-95588769D02*
X120828797Y-95517341D01*
X120828797Y-95517341D02*
X120971654Y-95445912D01*
X120971654Y-95445912D02*
X121185940Y-95445912D01*
X121185940Y-95445912D02*
X121328797Y-95517341D01*
X121328797Y-95517341D02*
X121400226Y-95660198D01*
X121400226Y-95660198D02*
X121400226Y-96445912D01*
X122757369Y-95445912D02*
X122757369Y-96660198D01*
X122757369Y-96660198D02*
X122685940Y-96803055D01*
X122685940Y-96803055D02*
X122614511Y-96874484D01*
X122614511Y-96874484D02*
X122471654Y-96945912D01*
X122471654Y-96945912D02*
X122257369Y-96945912D01*
X122257369Y-96945912D02*
X122114511Y-96874484D01*
X122757369Y-96374484D02*
X122614511Y-96445912D01*
X122614511Y-96445912D02*
X122328797Y-96445912D01*
X122328797Y-96445912D02*
X122185940Y-96374484D01*
X122185940Y-96374484D02*
X122114511Y-96303055D01*
X122114511Y-96303055D02*
X122043083Y-96160198D01*
X122043083Y-96160198D02*
X122043083Y-95731626D01*
X122043083Y-95731626D02*
X122114511Y-95588769D01*
X122114511Y-95588769D02*
X122185940Y-95517341D01*
X122185940Y-95517341D02*
X122328797Y-95445912D01*
X122328797Y-95445912D02*
X122614511Y-95445912D01*
X122614511Y-95445912D02*
X122757369Y-95517341D01*
X124543083Y-96374484D02*
X124757369Y-96445912D01*
X124757369Y-96445912D02*
X125114511Y-96445912D01*
X125114511Y-96445912D02*
X125257369Y-96374484D01*
X125257369Y-96374484D02*
X125328797Y-96303055D01*
X125328797Y-96303055D02*
X125400226Y-96160198D01*
X125400226Y-96160198D02*
X125400226Y-96017341D01*
X125400226Y-96017341D02*
X125328797Y-95874484D01*
X125328797Y-95874484D02*
X125257369Y-95803055D01*
X125257369Y-95803055D02*
X125114511Y-95731626D01*
X125114511Y-95731626D02*
X124828797Y-95660198D01*
X124828797Y-95660198D02*
X124685940Y-95588769D01*
X124685940Y-95588769D02*
X124614511Y-95517341D01*
X124614511Y-95517341D02*
X124543083Y-95374484D01*
X124543083Y-95374484D02*
X124543083Y-95231626D01*
X124543083Y-95231626D02*
X124614511Y-95088769D01*
X124614511Y-95088769D02*
X124685940Y-95017341D01*
X124685940Y-95017341D02*
X124828797Y-94945912D01*
X124828797Y-94945912D02*
X125185940Y-94945912D01*
X125185940Y-94945912D02*
X125400226Y-95017341D01*
X125828797Y-95445912D02*
X126400225Y-95445912D01*
X126043082Y-94945912D02*
X126043082Y-96231626D01*
X126043082Y-96231626D02*
X126114511Y-96374484D01*
X126114511Y-96374484D02*
X126257368Y-96445912D01*
X126257368Y-96445912D02*
X126400225Y-96445912D01*
X127543083Y-95445912D02*
X127543083Y-96445912D01*
X126900225Y-95445912D02*
X126900225Y-96231626D01*
X126900225Y-96231626D02*
X126971654Y-96374484D01*
X126971654Y-96374484D02*
X127114511Y-96445912D01*
X127114511Y-96445912D02*
X127328797Y-96445912D01*
X127328797Y-96445912D02*
X127471654Y-96374484D01*
X127471654Y-96374484D02*
X127543083Y-96303055D01*
X128900226Y-96445912D02*
X128900226Y-94945912D01*
X128900226Y-96374484D02*
X128757368Y-96445912D01*
X128757368Y-96445912D02*
X128471654Y-96445912D01*
X128471654Y-96445912D02*
X128328797Y-96374484D01*
X128328797Y-96374484D02*
X128257368Y-96303055D01*
X128257368Y-96303055D02*
X128185940Y-96160198D01*
X128185940Y-96160198D02*
X128185940Y-95731626D01*
X128185940Y-95731626D02*
X128257368Y-95588769D01*
X128257368Y-95588769D02*
X128328797Y-95517341D01*
X128328797Y-95517341D02*
X128471654Y-95445912D01*
X128471654Y-95445912D02*
X128757368Y-95445912D01*
X128757368Y-95445912D02*
X128900226Y-95517341D01*
X130185940Y-96374484D02*
X130043083Y-96445912D01*
X130043083Y-96445912D02*
X129757369Y-96445912D01*
X129757369Y-96445912D02*
X129614511Y-96374484D01*
X129614511Y-96374484D02*
X129543083Y-96231626D01*
X129543083Y-96231626D02*
X129543083Y-95660198D01*
X129543083Y-95660198D02*
X129614511Y-95517341D01*
X129614511Y-95517341D02*
X129757369Y-95445912D01*
X129757369Y-95445912D02*
X130043083Y-95445912D01*
X130043083Y-95445912D02*
X130185940Y-95517341D01*
X130185940Y-95517341D02*
X130257369Y-95660198D01*
X130257369Y-95660198D02*
X130257369Y-95803055D01*
X130257369Y-95803055D02*
X129543083Y-95945912D01*
X130900225Y-95445912D02*
X130900225Y-96445912D01*
X130900225Y-95588769D02*
X130971654Y-95517341D01*
X130971654Y-95517341D02*
X131114511Y-95445912D01*
X131114511Y-95445912D02*
X131328797Y-95445912D01*
X131328797Y-95445912D02*
X131471654Y-95517341D01*
X131471654Y-95517341D02*
X131543083Y-95660198D01*
X131543083Y-95660198D02*
X131543083Y-96445912D01*
X132043083Y-95445912D02*
X132614511Y-95445912D01*
X132257368Y-94945912D02*
X132257368Y-96231626D01*
X132257368Y-96231626D02*
X132328797Y-96374484D01*
X132328797Y-96374484D02*
X132471654Y-96445912D01*
X132471654Y-96445912D02*
X132614511Y-96445912D01*
X99614510Y-97360828D02*
X99614510Y-98575114D01*
X99614510Y-98575114D02*
X99685939Y-98717971D01*
X99685939Y-98717971D02*
X99757368Y-98789400D01*
X99757368Y-98789400D02*
X99900225Y-98860828D01*
X99900225Y-98860828D02*
X100185939Y-98860828D01*
X100185939Y-98860828D02*
X100328796Y-98789400D01*
X100328796Y-98789400D02*
X100400225Y-98717971D01*
X100400225Y-98717971D02*
X100471653Y-98575114D01*
X100471653Y-98575114D02*
X100471653Y-97360828D01*
X101114511Y-98432257D02*
X101828797Y-98432257D01*
X100971654Y-98860828D02*
X101471654Y-97360828D01*
X101471654Y-97360828D02*
X101971654Y-98860828D01*
X102257368Y-97360828D02*
X103114511Y-97360828D01*
X102685939Y-98860828D02*
X102685939Y-97360828D01*
X103614510Y-98717971D02*
X103685939Y-98789400D01*
X103685939Y-98789400D02*
X103614510Y-98860828D01*
X103614510Y-98860828D02*
X103543082Y-98789400D01*
X103543082Y-98789400D02*
X103614510Y-98717971D01*
X103614510Y-98717971D02*
X103614510Y-98860828D01*
X104900225Y-98789400D02*
X104757368Y-98860828D01*
X104757368Y-98860828D02*
X104471654Y-98860828D01*
X104471654Y-98860828D02*
X104328796Y-98789400D01*
X104328796Y-98789400D02*
X104257368Y-98646542D01*
X104257368Y-98646542D02*
X104257368Y-98075114D01*
X104257368Y-98075114D02*
X104328796Y-97932257D01*
X104328796Y-97932257D02*
X104471654Y-97860828D01*
X104471654Y-97860828D02*
X104757368Y-97860828D01*
X104757368Y-97860828D02*
X104900225Y-97932257D01*
X104900225Y-97932257D02*
X104971654Y-98075114D01*
X104971654Y-98075114D02*
X104971654Y-98217971D01*
X104971654Y-98217971D02*
X104257368Y-98360828D01*
X106257368Y-98860828D02*
X106257368Y-97360828D01*
X106257368Y-98789400D02*
X106114510Y-98860828D01*
X106114510Y-98860828D02*
X105828796Y-98860828D01*
X105828796Y-98860828D02*
X105685939Y-98789400D01*
X105685939Y-98789400D02*
X105614510Y-98717971D01*
X105614510Y-98717971D02*
X105543082Y-98575114D01*
X105543082Y-98575114D02*
X105543082Y-98146542D01*
X105543082Y-98146542D02*
X105614510Y-98003685D01*
X105614510Y-98003685D02*
X105685939Y-97932257D01*
X105685939Y-97932257D02*
X105828796Y-97860828D01*
X105828796Y-97860828D02*
X106114510Y-97860828D01*
X106114510Y-97860828D02*
X106257368Y-97932257D01*
X107614511Y-97860828D02*
X107614511Y-98860828D01*
X106971653Y-97860828D02*
X106971653Y-98646542D01*
X106971653Y-98646542D02*
X107043082Y-98789400D01*
X107043082Y-98789400D02*
X107185939Y-98860828D01*
X107185939Y-98860828D02*
X107400225Y-98860828D01*
X107400225Y-98860828D02*
X107543082Y-98789400D01*
X107543082Y-98789400D02*
X107614511Y-98717971D01*
D12*
%TO.P,R1,1*%
%TO.N,Net-(BT1-+)*%
X71830000Y-54900000D03*
D13*
%TO.P,R1,2*%
%TO.N,Net-(R1-Pad2)*%
X81990000Y-54900000D03*
%TD*%
D14*
%TO.P,D1,1,K*%
%TO.N,Net-(BT1--)*%
X81990000Y-75220000D03*
D15*
%TO.P,D1,2,A*%
%TO.N,Net-(D1-A)*%
X84530000Y-75220000D03*
%TD*%
%TO.P,BT1,1,+*%
%TO.N,Net-(BT1-+)*%
X64210000Y-55400000D03*
%TO.P,BT1,2,-*%
%TO.N,Net-(BT1--)*%
X64210000Y-76150000D03*
%TD*%
D16*
%TO.P,SW1,1,1*%
%TO.N,Net-(R1-Pad2)*%
X79300000Y-61250000D03*
X85800000Y-61250000D03*
%TO.P,SW1,2,2*%
%TO.N,Net-(D1-A)*%
X79300000Y-65750000D03*
X85800000Y-65750000D03*
%TD*%
D17*
%TO.N,Net-(BT1-+)*%
X64210000Y-55400000D02*
X71330000Y-55400000D01*
X71330000Y-55400000D02*
X71830000Y-54900000D01*
%TO.N,Net-(BT1--)*%
X65140000Y-75220000D02*
X64210000Y-76150000D01*
X81990000Y-75220000D02*
X65140000Y-75220000D01*
%TO.N,Net-(D1-A)*%
X84530000Y-67020000D02*
X85800000Y-65750000D01*
X84530000Y-75220000D02*
X84530000Y-67020000D01*
%TO.N,Net-(R1-Pad2)*%
X81990000Y-58560000D02*
X79300000Y-61250000D01*
X81990000Y-54900000D02*
X81990000Y-58560000D01*
%TD*%
%TA.AperFunction,NonConductor*%
G36*
X134442539Y-50520185D02*
G01*
X134488294Y-50572989D01*
X134499500Y-50624500D01*
X134499500Y-104375500D01*
X134479815Y-104442539D01*
X134427011Y-104488294D01*
X134375500Y-104499500D01*
X50624500Y-104499500D01*
X50557461Y-104479815D01*
X50511706Y-104427011D01*
X50500500Y-104375500D01*
X50500500Y-91874335D01*
X98957285Y-91874335D01*
X98957285Y-99518053D01*
X133270011Y-99518053D01*
X133270011Y-91874335D01*
X98957285Y-91874335D01*
X50500500Y-91874335D01*
X50500500Y-76150006D01*
X62804700Y-76150006D01*
X62823864Y-76381297D01*
X62823866Y-76381308D01*
X62880842Y-76606300D01*
X62974075Y-76818848D01*
X63101016Y-77013147D01*
X63101019Y-77013151D01*
X63101021Y-77013153D01*
X63258216Y-77183913D01*
X63258219Y-77183915D01*
X63258222Y-77183918D01*
X63441365Y-77326464D01*
X63441371Y-77326468D01*
X63441374Y-77326470D01*
X63645497Y-77436936D01*
X63759487Y-77476068D01*
X63865015Y-77512297D01*
X63865017Y-77512297D01*
X63865019Y-77512298D01*
X64093951Y-77550500D01*
X64093952Y-77550500D01*
X64326048Y-77550500D01*
X64326049Y-77550500D01*
X64554981Y-77512298D01*
X64774503Y-77436936D01*
X64978626Y-77326470D01*
X65161784Y-77183913D01*
X65318979Y-77013153D01*
X65445924Y-76818849D01*
X65539157Y-76606300D01*
X65596134Y-76381305D01*
X65597706Y-76362335D01*
X65615300Y-76150006D01*
X65615300Y-76149994D01*
X65599121Y-75954740D01*
X65613202Y-75886304D01*
X65662047Y-75836345D01*
X65722697Y-75820500D01*
X80465501Y-75820500D01*
X80532540Y-75840185D01*
X80578295Y-75892989D01*
X80589501Y-75944500D01*
X80589501Y-76167876D01*
X80595908Y-76227483D01*
X80646202Y-76362328D01*
X80646206Y-76362335D01*
X80732452Y-76477544D01*
X80732455Y-76477547D01*
X80847664Y-76563793D01*
X80847671Y-76563797D01*
X80982517Y-76614091D01*
X80982516Y-76614091D01*
X80989444Y-76614835D01*
X81042127Y-76620500D01*
X82937872Y-76620499D01*
X82997483Y-76614091D01*
X83132331Y-76563796D01*
X83247546Y-76477546D01*
X83333796Y-76362331D01*
X83362455Y-76285493D01*
X83404326Y-76229559D01*
X83469790Y-76205141D01*
X83538063Y-76219992D01*
X83569866Y-76244843D01*
X83577302Y-76252920D01*
X83578215Y-76253912D01*
X83578222Y-76253918D01*
X83761365Y-76396464D01*
X83761371Y-76396468D01*
X83761374Y-76396470D01*
X83965497Y-76506936D01*
X84079487Y-76546068D01*
X84185015Y-76582297D01*
X84185017Y-76582297D01*
X84185019Y-76582298D01*
X84413951Y-76620500D01*
X84413952Y-76620500D01*
X84646048Y-76620500D01*
X84646049Y-76620500D01*
X84874981Y-76582298D01*
X85094503Y-76506936D01*
X85298626Y-76396470D01*
X85318121Y-76381297D01*
X85360129Y-76348600D01*
X85481784Y-76253913D01*
X85638979Y-76083153D01*
X85765924Y-75888849D01*
X85859157Y-75676300D01*
X85916134Y-75451305D01*
X85935300Y-75220000D01*
X85935300Y-75219993D01*
X85916135Y-74988702D01*
X85916133Y-74988691D01*
X85859157Y-74763699D01*
X85765924Y-74551151D01*
X85638983Y-74356852D01*
X85638980Y-74356849D01*
X85638979Y-74356847D01*
X85481784Y-74186087D01*
X85481779Y-74186083D01*
X85481777Y-74186081D01*
X85298634Y-74043535D01*
X85298623Y-74043528D01*
X85195481Y-73987709D01*
X85145891Y-73938489D01*
X85130500Y-73878655D01*
X85130500Y-67320097D01*
X85150185Y-67253058D01*
X85166819Y-67232416D01*
X85196451Y-67202784D01*
X85257774Y-67169299D01*
X85324396Y-67173184D01*
X85430385Y-67209571D01*
X85675665Y-67250500D01*
X85924335Y-67250500D01*
X86169614Y-67209571D01*
X86404810Y-67128828D01*
X86623509Y-67010474D01*
X86819744Y-66857738D01*
X86988164Y-66674785D01*
X87124173Y-66466607D01*
X87224063Y-66238881D01*
X87285108Y-65997821D01*
X87305643Y-65750000D01*
X87285108Y-65502179D01*
X87224063Y-65261119D01*
X87124173Y-65033393D01*
X86988166Y-64825217D01*
X86966557Y-64801744D01*
X86819744Y-64642262D01*
X86623509Y-64489526D01*
X86623507Y-64489525D01*
X86623506Y-64489524D01*
X86404811Y-64371172D01*
X86404802Y-64371169D01*
X86169616Y-64290429D01*
X85924335Y-64249500D01*
X85675665Y-64249500D01*
X85430383Y-64290429D01*
X85195197Y-64371169D01*
X85195188Y-64371172D01*
X84976493Y-64489524D01*
X84780257Y-64642261D01*
X84611833Y-64825217D01*
X84475826Y-65033393D01*
X84375936Y-65261118D01*
X84314892Y-65502175D01*
X84314890Y-65502187D01*
X84294357Y-65749994D01*
X84294357Y-65750005D01*
X84314890Y-65997812D01*
X84314892Y-65997824D01*
X84376007Y-66239160D01*
X84373382Y-66308980D01*
X84343482Y-66357281D01*
X84161286Y-66539478D01*
X84049481Y-66651282D01*
X84049477Y-66651287D01*
X84035912Y-66674785D01*
X84032358Y-66680941D01*
X83970423Y-66788215D01*
X83929499Y-66940943D01*
X83929499Y-66940945D01*
X83929499Y-67109046D01*
X83929500Y-67109059D01*
X83929500Y-73878655D01*
X83909815Y-73945694D01*
X83864519Y-73987709D01*
X83761376Y-74043528D01*
X83761365Y-74043535D01*
X83578222Y-74186081D01*
X83578218Y-74186085D01*
X83569866Y-74195158D01*
X83509979Y-74231148D01*
X83440141Y-74229047D01*
X83382525Y-74189522D01*
X83362455Y-74154507D01*
X83333797Y-74077671D01*
X83333793Y-74077664D01*
X83247547Y-73962455D01*
X83247544Y-73962452D01*
X83132335Y-73876206D01*
X83132328Y-73876202D01*
X82997482Y-73825908D01*
X82997483Y-73825908D01*
X82937883Y-73819501D01*
X82937881Y-73819500D01*
X82937873Y-73819500D01*
X82937864Y-73819500D01*
X81042129Y-73819500D01*
X81042123Y-73819501D01*
X80982516Y-73825908D01*
X80847671Y-73876202D01*
X80847664Y-73876206D01*
X80732455Y-73962452D01*
X80732452Y-73962455D01*
X80646206Y-74077664D01*
X80646202Y-74077671D01*
X80595908Y-74212517D01*
X80589501Y-74272116D01*
X80589500Y-74272135D01*
X80589500Y-74495500D01*
X80569815Y-74562539D01*
X80517011Y-74608294D01*
X80465500Y-74619500D01*
X65226670Y-74619500D01*
X65226654Y-74619499D01*
X65219058Y-74619499D01*
X65060943Y-74619499D01*
X64984579Y-74639961D01*
X64908214Y-74660423D01*
X64908209Y-74660426D01*
X64771283Y-74739479D01*
X64771282Y-74739479D01*
X64734836Y-74775925D01*
X64673512Y-74809409D01*
X64606894Y-74805523D01*
X64554984Y-74787702D01*
X64383282Y-74759050D01*
X64326049Y-74749500D01*
X64093951Y-74749500D01*
X64048164Y-74757140D01*
X63865015Y-74787702D01*
X63645504Y-74863061D01*
X63645495Y-74863064D01*
X63441371Y-74973531D01*
X63441365Y-74973535D01*
X63258222Y-75116081D01*
X63258219Y-75116084D01*
X63101016Y-75286852D01*
X62974075Y-75481151D01*
X62880842Y-75693699D01*
X62823866Y-75918691D01*
X62823864Y-75918702D01*
X62804700Y-76149993D01*
X62804700Y-76150006D01*
X50500500Y-76150006D01*
X50500500Y-65750005D01*
X77794357Y-65750005D01*
X77814890Y-65997812D01*
X77814892Y-65997824D01*
X77875936Y-66238881D01*
X77975826Y-66466606D01*
X78111833Y-66674782D01*
X78111836Y-66674785D01*
X78280256Y-66857738D01*
X78476491Y-67010474D01*
X78476493Y-67010475D01*
X78640183Y-67099060D01*
X78695190Y-67128828D01*
X78930386Y-67209571D01*
X79175665Y-67250500D01*
X79424335Y-67250500D01*
X79669614Y-67209571D01*
X79904810Y-67128828D01*
X80123509Y-67010474D01*
X80319744Y-66857738D01*
X80488164Y-66674785D01*
X80624173Y-66466607D01*
X80724063Y-66238881D01*
X80785108Y-65997821D01*
X80805643Y-65750000D01*
X80785108Y-65502179D01*
X80724063Y-65261119D01*
X80624173Y-65033393D01*
X80488166Y-64825217D01*
X80466557Y-64801744D01*
X80319744Y-64642262D01*
X80123509Y-64489526D01*
X80123507Y-64489525D01*
X80123506Y-64489524D01*
X79904811Y-64371172D01*
X79904802Y-64371169D01*
X79669616Y-64290429D01*
X79424335Y-64249500D01*
X79175665Y-64249500D01*
X78930383Y-64290429D01*
X78695197Y-64371169D01*
X78695188Y-64371172D01*
X78476493Y-64489524D01*
X78280257Y-64642261D01*
X78111833Y-64825217D01*
X77975826Y-65033393D01*
X77875936Y-65261118D01*
X77814892Y-65502175D01*
X77814890Y-65502187D01*
X77794357Y-65749994D01*
X77794357Y-65750005D01*
X50500500Y-65750005D01*
X50500500Y-61250005D01*
X77794357Y-61250005D01*
X77814890Y-61497812D01*
X77814892Y-61497824D01*
X77875936Y-61738881D01*
X77975826Y-61966606D01*
X78111833Y-62174782D01*
X78111836Y-62174785D01*
X78280256Y-62357738D01*
X78476491Y-62510474D01*
X78695190Y-62628828D01*
X78930386Y-62709571D01*
X79175665Y-62750500D01*
X79424335Y-62750500D01*
X79669614Y-62709571D01*
X79904810Y-62628828D01*
X80123509Y-62510474D01*
X80319744Y-62357738D01*
X80488164Y-62174785D01*
X80624173Y-61966607D01*
X80724063Y-61738881D01*
X80785108Y-61497821D01*
X80805643Y-61250005D01*
X84294357Y-61250005D01*
X84314890Y-61497812D01*
X84314892Y-61497824D01*
X84375936Y-61738881D01*
X84475826Y-61966606D01*
X84611833Y-62174782D01*
X84611836Y-62174785D01*
X84780256Y-62357738D01*
X84976491Y-62510474D01*
X85195190Y-62628828D01*
X85430386Y-62709571D01*
X85675665Y-62750500D01*
X85924335Y-62750500D01*
X86169614Y-62709571D01*
X86404810Y-62628828D01*
X86623509Y-62510474D01*
X86819744Y-62357738D01*
X86988164Y-62174785D01*
X87124173Y-61966607D01*
X87224063Y-61738881D01*
X87285108Y-61497821D01*
X87305643Y-61250000D01*
X87285108Y-61002179D01*
X87224063Y-60761119D01*
X87223940Y-60760839D01*
X87124173Y-60533393D01*
X86988166Y-60325217D01*
X86966557Y-60301744D01*
X86819744Y-60142262D01*
X86623509Y-59989526D01*
X86623507Y-59989525D01*
X86623506Y-59989524D01*
X86404811Y-59871172D01*
X86404802Y-59871169D01*
X86169616Y-59790429D01*
X85924335Y-59749500D01*
X85675665Y-59749500D01*
X85430383Y-59790429D01*
X85195197Y-59871169D01*
X85195188Y-59871172D01*
X84976493Y-59989524D01*
X84780257Y-60142261D01*
X84611833Y-60325217D01*
X84475826Y-60533393D01*
X84375936Y-60761118D01*
X84314892Y-61002175D01*
X84314890Y-61002187D01*
X84294357Y-61249994D01*
X84294357Y-61250005D01*
X80805643Y-61250005D01*
X80805643Y-61250000D01*
X80785108Y-61002179D01*
X80724063Y-60761119D01*
X80724062Y-60761118D01*
X80723992Y-60760839D01*
X80726616Y-60691018D01*
X80756514Y-60642719D01*
X82348506Y-59050728D01*
X82348511Y-59050724D01*
X82358714Y-59040520D01*
X82358716Y-59040520D01*
X82470520Y-58928716D01*
X82549577Y-58791784D01*
X82590500Y-58639057D01*
X82590500Y-56131692D01*
X82610185Y-56064653D01*
X82643374Y-56030119D01*
X82829139Y-55900047D01*
X82990047Y-55739139D01*
X83120568Y-55552734D01*
X83216739Y-55346496D01*
X83275635Y-55126692D01*
X83295468Y-54900000D01*
X83275635Y-54673308D01*
X83216739Y-54453504D01*
X83120568Y-54247266D01*
X82990047Y-54060861D01*
X82990045Y-54060858D01*
X82829141Y-53899954D01*
X82642734Y-53769432D01*
X82642732Y-53769431D01*
X82436497Y-53673261D01*
X82436488Y-53673258D01*
X82216697Y-53614366D01*
X82216693Y-53614365D01*
X82216692Y-53614365D01*
X82216691Y-53614364D01*
X82216686Y-53614364D01*
X81990002Y-53594532D01*
X81989998Y-53594532D01*
X81763313Y-53614364D01*
X81763302Y-53614366D01*
X81543511Y-53673258D01*
X81543502Y-53673261D01*
X81337267Y-53769431D01*
X81337265Y-53769432D01*
X81150858Y-53899954D01*
X80989954Y-54060858D01*
X80859432Y-54247265D01*
X80859431Y-54247267D01*
X80763261Y-54453502D01*
X80763258Y-54453511D01*
X80704366Y-54673302D01*
X80704364Y-54673313D01*
X80684532Y-54899998D01*
X80684532Y-54900001D01*
X80704364Y-55126686D01*
X80704366Y-55126697D01*
X80763258Y-55346488D01*
X80763261Y-55346497D01*
X80859431Y-55552732D01*
X80859432Y-55552734D01*
X80989954Y-55739141D01*
X81150858Y-55900045D01*
X81150861Y-55900047D01*
X81336624Y-56030118D01*
X81380248Y-56084693D01*
X81389500Y-56131692D01*
X81389500Y-58259902D01*
X81369815Y-58326941D01*
X81353181Y-58347583D01*
X79903548Y-59797215D01*
X79842225Y-59830700D01*
X79775604Y-59826815D01*
X79669616Y-59790429D01*
X79424335Y-59749500D01*
X79175665Y-59749500D01*
X78930383Y-59790429D01*
X78695197Y-59871169D01*
X78695188Y-59871172D01*
X78476493Y-59989524D01*
X78280257Y-60142261D01*
X78111833Y-60325217D01*
X77975826Y-60533393D01*
X77875936Y-60761118D01*
X77814892Y-61002175D01*
X77814890Y-61002187D01*
X77794357Y-61249994D01*
X77794357Y-61250005D01*
X50500500Y-61250005D01*
X50500500Y-55400006D01*
X62804700Y-55400006D01*
X62823864Y-55631297D01*
X62823866Y-55631308D01*
X62880842Y-55856300D01*
X62974075Y-56068848D01*
X63101016Y-56263147D01*
X63101019Y-56263151D01*
X63101021Y-56263153D01*
X63258216Y-56433913D01*
X63258219Y-56433915D01*
X63258222Y-56433918D01*
X63441365Y-56576464D01*
X63441371Y-56576468D01*
X63441374Y-56576470D01*
X63645497Y-56686936D01*
X63759487Y-56726068D01*
X63865015Y-56762297D01*
X63865017Y-56762297D01*
X63865019Y-56762298D01*
X64093951Y-56800500D01*
X64093952Y-56800500D01*
X64326048Y-56800500D01*
X64326049Y-56800500D01*
X64554981Y-56762298D01*
X64774503Y-56686936D01*
X64978626Y-56576470D01*
X65161784Y-56433913D01*
X65318979Y-56263153D01*
X65445924Y-56068849D01*
X65445926Y-56068843D01*
X65447747Y-56065481D01*
X65496967Y-56015891D01*
X65556801Y-56000500D01*
X71095228Y-56000500D01*
X71162267Y-56020185D01*
X71166340Y-56022917D01*
X71177266Y-56030568D01*
X71383504Y-56126739D01*
X71603308Y-56185635D01*
X71765230Y-56199801D01*
X71829998Y-56205468D01*
X71830000Y-56205468D01*
X71830002Y-56205468D01*
X71886673Y-56200509D01*
X72056692Y-56185635D01*
X72276496Y-56126739D01*
X72482734Y-56030568D01*
X72669139Y-55900047D01*
X72830047Y-55739139D01*
X72960568Y-55552734D01*
X73056739Y-55346496D01*
X73115635Y-55126692D01*
X73135468Y-54900000D01*
X73115635Y-54673308D01*
X73056739Y-54453504D01*
X72960568Y-54247266D01*
X72830047Y-54060861D01*
X72830045Y-54060858D01*
X72669141Y-53899954D01*
X72482734Y-53769432D01*
X72482732Y-53769431D01*
X72276497Y-53673261D01*
X72276488Y-53673258D01*
X72056697Y-53614366D01*
X72056693Y-53614365D01*
X72056692Y-53614365D01*
X72056691Y-53614364D01*
X72056686Y-53614364D01*
X71830002Y-53594532D01*
X71829998Y-53594532D01*
X71603313Y-53614364D01*
X71603302Y-53614366D01*
X71383511Y-53673258D01*
X71383502Y-53673261D01*
X71177267Y-53769431D01*
X71177265Y-53769432D01*
X70990858Y-53899954D01*
X70829954Y-54060858D01*
X70699432Y-54247265D01*
X70699431Y-54247267D01*
X70603261Y-54453502D01*
X70603258Y-54453511D01*
X70544365Y-54673305D01*
X70544365Y-54673309D01*
X70543228Y-54686307D01*
X70517776Y-54751376D01*
X70461185Y-54792354D01*
X70419700Y-54799500D01*
X65556801Y-54799500D01*
X65489762Y-54779815D01*
X65447747Y-54734519D01*
X65445924Y-54731151D01*
X65318983Y-54536852D01*
X65318980Y-54536849D01*
X65318979Y-54536847D01*
X65161784Y-54366087D01*
X65161779Y-54366083D01*
X65161777Y-54366081D01*
X64978634Y-54223535D01*
X64978628Y-54223531D01*
X64774504Y-54113064D01*
X64774495Y-54113061D01*
X64554984Y-54037702D01*
X64383282Y-54009050D01*
X64326049Y-53999500D01*
X64093951Y-53999500D01*
X64048164Y-54007140D01*
X63865015Y-54037702D01*
X63645504Y-54113061D01*
X63645495Y-54113064D01*
X63441371Y-54223531D01*
X63441365Y-54223535D01*
X63258222Y-54366081D01*
X63258219Y-54366084D01*
X63101016Y-54536852D01*
X62974075Y-54731151D01*
X62880842Y-54943699D01*
X62823866Y-55168691D01*
X62823864Y-55168702D01*
X62804700Y-55399993D01*
X62804700Y-55400006D01*
X50500500Y-55400006D01*
X50500500Y-50624500D01*
X50520185Y-50557461D01*
X50572989Y-50511706D01*
X50624500Y-50500500D01*
X134375500Y-50500500D01*
X134442539Y-50520185D01*
G37*
%TD.AperFunction*%
M02*
